0
SECTION
2
HEADER
9
$INSUNITS
70
4
0
ENDSEC
0
SECTION
2
TABLES
0
TABLE
2
LTYPE
0
LTYPE
72
65
70
64
2
CONTINUOUS
3
______
73
0
40
0
0
ENDTAB
0
TABLE
2
LAYER
0
ENDTAB
0
ENDSEC
0
SECTION
2
ENTITIES
0
LINE
8
0
10
364
20
-55.7767391
11
364
21
-109.9782621
0
LINE
8
0
10
361.9783802
20
-111.9781452
11
304.2834296
21
-111.3544303
0
LINE
8
0
10
302.2624673
20
-113.4055938
11
302.6924872
21
-130.1714182
0
LINE
8
0
10
301.4530269
20
-132.07272
11
248.5542284
21
-153.8004976
0
LINE
8
0
10
246.2622573
20
-153.2360515
11
232.2483805
21
-136.5349634
0
LINE
8
0
10
231.7805247
20
-135.2345153
11
232.0387345
21
-100.5130867
0
LINE
8
0
10
232.0387854
20
-100.4940195
11
232.0042032
21
-84.0041944
0
LINE
8
0
10
234.0041988
20
-82
11
248
21
-82
0
LINE
8
0
10
250
20
-80
11
250
21
-55.3037962
0
LINE
8
0
10
251.6821408
20
-53.3292164
11
290.8420866
21
-47.0254202
0
LINE
8
0
10
291.1599458
20
-47
11
304.8817703
21
-47
0
LINE
8
0
10
305.1174057
20
-47.0139295
11
362.2356354
21
-53.7906686
0
ARC
8
0
10
362
20
-109.9782621
40
2
50
269.3806263
51
0
0
ARC
8
0
10
304.2618098
20
-113.3543134
40
2
50
89.3806263
51
181.4692363
0
ARC
8
0
10
300.6931447
20
-130.2226986
40
2
50
292.3300339
51
1.4692363
0
ARC
8
0
10
247.7943462
20
-151.9504762
40
2
50
220.0000012
51
292.3300339
0
ARC
8
0
10
233.7804694
20
-135.2493881
40
2
50
179.5739217
51
220.0000012
0
ARC
8
0
10
230.0387898
20
-100.4982139
40
2
50
359.5739217
51
0.1201608
0
ARC
8
0
10
234.0041988
20
-84
40
2
50
90
51
180.1201608
0
ARC
8
0
10
248
20
-80
40
2
50
270
51
0
0
ARC
8
0
10
252
20
-55.3037962
40
2
50
99.144772
51
180
0
ARC
8
0
10
291.1599458
20
-49
40
2
50
90
51
99.144772
0
ARC
8
0
10
304.8817703
20
-49
40
2
50
83.2338272
51
90
0
ARC
8
0
10
362
20
-55.7767391
40
2
50
0
51
83.2338272
0
LINE
8
0
10
343.25
20
-108.25
11
360.75
21
-108.25
0
LINE
8
0
10
360.75
20
-108.25
11
360.75
21
-91.75
0
LINE
8
0
10
360.75
20
-91.75
11
343.25
21
-91.75
0
LINE
8
0
10
343.25
20
-91.75
11
343.25
21
-108.25
0
LINE
8
0
10
343.25
20
-91.25
11
360.75
21
-91.25
0
LINE
8
0
10
360.75
20
-91.25
11
360.75
21
-74.75
0
LINE
8
0
10
360.75
20
-74.75
11
343.25
21
-74.75
0
LINE
8
0
10
343.25
20
-74.75
11
343.25
21
-91.25
0
LINE
8
0
10
343.25
20
-74.25
11
360.75
21
-74.25
0
LINE
8
0
10
360.75
20
-74.25
11
360.75
21
-57.75
0
LINE
8
0
10
360.75
20
-57.75
11
343.25
21
-57.75
0
LINE
8
0
10
343.25
20
-57.75
11
343.25
21
-74.25
0
LINE
8
0
10
325.25
20
-108.25
11
342.75
21
-108.25
0
LINE
8
0
10
342.75
20
-108.25
11
342.75
21
-91.75
0
LINE
8
0
10
342.75
20
-91.75
11
325.25
21
-91.75
0
LINE
8
0
10
325.25
20
-91.75
11
325.25
21
-108.25
0
LINE
8
0
10
325.25
20
-91.25
11
342.75
21
-91.25
0
LINE
8
0
10
342.75
20
-91.25
11
342.75
21
-74.75
0
LINE
8
0
10
342.75
20
-74.75
11
325.25
21
-74.75
0
LINE
8
0
10
325.25
20
-74.75
11
325.25
21
-91.25
0
LINE
8
0
10
325.25
20
-74.25
11
342.75
21
-74.25
0
LINE
8
0
10
342.75
20
-74.25
11
342.75
21
-57.75
0
LINE
8
0
10
342.75
20
-57.75
11
325.25
21
-57.75
0
LINE
8
0
10
325.25
20
-57.75
11
325.25
21
-74.25
0
LINE
8
0
10
307.25
20
-105.25
11
324.75
21
-105.25
0
LINE
8
0
10
324.75
20
-105.25
11
324.75
21
-88.75
0
LINE
8
0
10
324.75
20
-88.75
11
307.25
21
-88.75
0
LINE
8
0
10
307.25
20
-88.75
11
307.25
21
-105.25
0
LINE
8
0
10
307.25
20
-88.25
11
324.75
21
-88.25
0
LINE
8
0
10
324.75
20
-88.25
11
324.75
21
-71.75
0
LINE
8
0
10
324.75
20
-71.75
11
307.25
21
-71.75
0
LINE
8
0
10
307.25
20
-71.75
11
307.25
21
-88.25
0
LINE
8
0
10
307.25
20
-71.25
11
324.75
21
-71.25
0
LINE
8
0
10
324.75
20
-71.25
11
324.75
21
-54.75
0
LINE
8
0
10
324.75
20
-54.75
11
307.25
21
-54.75
0
LINE
8
0
10
307.25
20
-54.75
11
307.25
21
-71.25
0
LINE
8
0
10
289.25
20
-102.25
11
306.75
21
-102.25
0
LINE
8
0
10
306.75
20
-102.25
11
306.75
21
-85.75
0
LINE
8
0
10
306.75
20
-85.75
11
289.25
21
-85.75
0
LINE
8
0
10
289.25
20
-85.75
11
289.25
21
-102.25
0
LINE
8
0
10
289.25
20
-85.25
11
306.75
21
-85.25
0
LINE
8
0
10
306.75
20
-85.25
11
306.75
21
-68.75
0
LINE
8
0
10
306.75
20
-68.75
11
289.25
21
-68.75
0
LINE
8
0
10
289.25
20
-68.75
11
289.25
21
-85.25
0
LINE
8
0
10
289.25
20
-68.25
11
306.75
21
-68.25
0
LINE
8
0
10
306.75
20
-68.25
11
306.75
21
-51.75
0
LINE
8
0
10
306.75
20
-51.75
11
289.25
21
-51.75
0
LINE
8
0
10
289.25
20
-51.75
11
289.25
21
-68.25
0
LINE
8
0
10
271.25
20
-105.25
11
288.75
21
-105.25
0
LINE
8
0
10
288.75
20
-105.25
11
288.75
21
-88.75
0
LINE
8
0
10
288.75
20
-88.75
11
271.25
21
-88.75
0
LINE
8
0
10
271.25
20
-88.75
11
271.25
21
-105.25
0
LINE
8
0
10
271.25
20
-88.25
11
288.75
21
-88.25
0
LINE
8
0
10
288.75
20
-88.25
11
288.75
21
-71.75
0
LINE
8
0
10
288.75
20
-71.75
11
271.25
21
-71.75
0
LINE
8
0
10
271.25
20
-71.75
11
271.25
21
-88.25
0
LINE
8
0
10
271.25
20
-71.25
11
288.75
21
-71.25
0
LINE
8
0
10
288.75
20
-71.25
11
288.75
21
-54.75
0
LINE
8
0
10
288.75
20
-54.75
11
271.25
21
-54.75
0
LINE
8
0
10
271.25
20
-54.75
11
271.25
21
-71.25
0
LINE
8
0
10
253.25
20
-107.25
11
270.75
21
-107.25
0
LINE
8
0
10
270.75
20
-107.25
11
270.75
21
-90.75
0
LINE
8
0
10
270.75
20
-90.75
11
253.25
21
-90.75
0
LINE
8
0
10
253.25
20
-90.75
11
253.25
21
-107.25
0
LINE
8
0
10
253.25
20
-90.25
11
270.75
21
-90.25
0
LINE
8
0
10
270.75
20
-90.25
11
270.75
21
-73.75
0
LINE
8
0
10
270.75
20
-73.75
11
253.25
21
-73.75
0
LINE
8
0
10
253.25
20
-73.75
11
253.25
21
-90.25
0
LINE
8
0
10
253.25
20
-73.25
11
270.75
21
-73.25
0
LINE
8
0
10
270.75
20
-73.25
11
270.75
21
-56.75
0
LINE
8
0
10
270.75
20
-56.75
11
253.25
21
-56.75
0
LINE
8
0
10
253.25
20
-56.75
11
253.25
21
-73.25
0
LINE
8
0
10
281.8155296
20
-132.4440855
11
299.0496653
21
-129.4052424
0
LINE
8
0
10
299.0496653
20
-129.4052424
11
296.1844704
21
-113.1559145
0
LINE
8
0
10
296.1844704
20
-113.1559145
11
278.9503347
21
-116.1947576
0
LINE
8
0
10
278.9503347
20
-116.1947576
11
281.8155296
21
-132.4440855
0
LINE
8
0
10
262.8906369
20
-137.7952089
11
278.7510232
21
-130.3993894
0
LINE
8
0
10
278.7510232
20
-130.3993894
11
271.7778219
21
-115.4453109
0
LINE
8
0
10
271.7778219
20
-115.4453109
11
255.9174356
21
-122.8411304
0
LINE
8
0
10
255.9174356
20
-122.8411304
11
262.8906369
21
-137.7952089
0
LINE
8
0
10
247.2811422
20
-149.3942087
11
260.68692
21
-138.1454256
0
LINE
8
0
10
260.68692
20
-138.1454256
11
250.0809244
21
-125.5056923
0
LINE
8
0
10
250.0809244
20
-125.5056923
11
236.6751466
21
-136.7544754
0
LINE
8
0
10
236.6751466
20
-136.7544754
11
247.2811422
21
-149.3942087
0
ENDSEC
0
EOF