0
SECTION
2
HEADER
9
$INSUNITS
70
4
0
ENDSEC
0
SECTION
2
TABLES
0
TABLE
2
LTYPE
0
LTYPE
72
65
70
64
2
CONTINUOUS
3
______
73
0
40
0
0
ENDTAB
0
TABLE
2
LAYER
0
ENDTAB
0
ENDSEC
0
SECTION
2
ENTITIES
0
LINE
8
0
10
88
20
-55.7767391
11
88
21
-109.9782621
0
LINE
8
0
10
90.0216198
20
-111.9781452
11
147.7165704
21
-111.3544303
0
LINE
8
0
10
149.7375327
20
-113.4055938
11
149.3075128
21
-130.1714182
0
LINE
8
0
10
150.5469731
20
-132.07272
11
203.4457716
21
-153.8004976
0
LINE
8
0
10
205.7377427
20
-153.2360515
11
219.7516195
21
-136.5349634
0
LINE
8
0
10
220.2194753
20
-135.2345153
11
219.9612655
21
-100.5130867
0
LINE
8
0
10
219.9612146
20
-100.4940195
11
219.9957968
21
-84.0041944
0
LINE
8
0
10
217.9958012
20
-82
11
204
21
-82
0
LINE
8
0
10
202
20
-80
11
202
21
-55.3037962
0
LINE
8
0
10
200.3178592
20
-53.3292164
11
161.1579134
21
-47.0254202
0
LINE
8
0
10
160.8400542
20
-47
11
147.1182297
21
-47
0
LINE
8
0
10
146.8825943
20
-47.0139295
11
89.7643646
21
-53.7906686
0
ARC
8
0
10
90
20
-109.9782621
40
2
50
180
51
270.6193737
0
ARC
8
0
10
147.7381902
20
-113.3543134
40
2
50
358.5307637
51
90.6193737
0
ARC
8
0
10
151.3068553
20
-130.2226986
40
2
50
178.5307637
51
247.6699661
0
ARC
8
0
10
204.2056538
20
-151.9504762
40
2
50
247.6699661
51
319.9999988
0
ARC
8
0
10
218.2195306
20
-135.2493881
40
2
50
319.9999988
51
0.4260783
0
ARC
8
0
10
221.9612102
20
-100.4982139
40
2
50
179.8798392
51
180.4260783
0
ARC
8
0
10
217.9958012
20
-84
40
2
50
359.8798392
51
90
0
ARC
8
0
10
204
20
-80
40
2
50
180
51
270
0
ARC
8
0
10
200
20
-55.3037962
40
2
50
0
51
80.855228
0
ARC
8
0
10
160.8400542
20
-49
40
2
50
80.855228
51
90
0
ARC
8
0
10
147.1182297
20
-49
40
2
50
90
51
96.7661728
0
ARC
8
0
10
90
20
-55.7767391
40
2
50
96.7661728
51
180
0
LINE
8
0
10
91.25
20
-108.25
11
108.75
21
-108.25
0
LINE
8
0
10
108.75
20
-108.25
11
108.75
21
-91.75
0
LINE
8
0
10
108.75
20
-91.75
11
91.25
21
-91.75
0
LINE
8
0
10
91.25
20
-91.75
11
91.25
21
-108.25
0
LINE
8
0
10
91.25
20
-91.25
11
108.75
21
-91.25
0
LINE
8
0
10
108.75
20
-91.25
11
108.75
21
-74.75
0
LINE
8
0
10
108.75
20
-74.75
11
91.25
21
-74.75
0
LINE
8
0
10
91.25
20
-74.75
11
91.25
21
-91.25
0
LINE
8
0
10
91.25
20
-74.25
11
108.75
21
-74.25
0
LINE
8
0
10
108.75
20
-74.25
11
108.75
21
-57.75
0
LINE
8
0
10
108.75
20
-57.75
11
91.25
21
-57.75
0
LINE
8
0
10
91.25
20
-57.75
11
91.25
21
-74.25
0
LINE
8
0
10
109.25
20
-108.25
11
126.75
21
-108.25
0
LINE
8
0
10
126.75
20
-108.25
11
126.75
21
-91.75
0
LINE
8
0
10
126.75
20
-91.75
11
109.25
21
-91.75
0
LINE
8
0
10
109.25
20
-91.75
11
109.25
21
-108.25
0
LINE
8
0
10
109.25
20
-91.25
11
126.75
21
-91.25
0
LINE
8
0
10
126.75
20
-91.25
11
126.75
21
-74.75
0
LINE
8
0
10
126.75
20
-74.75
11
109.25
21
-74.75
0
LINE
8
0
10
109.25
20
-74.75
11
109.25
21
-91.25
0
LINE
8
0
10
109.25
20
-74.25
11
126.75
21
-74.25
0
LINE
8
0
10
126.75
20
-74.25
11
126.75
21
-57.75
0
LINE
8
0
10
126.75
20
-57.75
11
109.25
21
-57.75
0
LINE
8
0
10
109.25
20
-57.75
11
109.25
21
-74.25
0
LINE
8
0
10
127.25
20
-105.25
11
144.75
21
-105.25
0
LINE
8
0
10
144.75
20
-105.25
11
144.75
21
-88.75
0
LINE
8
0
10
144.75
20
-88.75
11
127.25
21
-88.75
0
LINE
8
0
10
127.25
20
-88.75
11
127.25
21
-105.25
0
LINE
8
0
10
127.25
20
-88.25
11
144.75
21
-88.25
0
LINE
8
0
10
144.75
20
-88.25
11
144.75
21
-71.75
0
LINE
8
0
10
144.75
20
-71.75
11
127.25
21
-71.75
0
LINE
8
0
10
127.25
20
-71.75
11
127.25
21
-88.25
0
LINE
8
0
10
127.25
20
-71.25
11
144.75
21
-71.25
0
LINE
8
0
10
144.75
20
-71.25
11
144.75
21
-54.75
0
LINE
8
0
10
144.75
20
-54.75
11
127.25
21
-54.75
0
LINE
8
0
10
127.25
20
-54.75
11
127.25
21
-71.25
0
LINE
8
0
10
145.25
20
-102.25
11
162.75
21
-102.25
0
LINE
8
0
10
162.75
20
-102.25
11
162.75
21
-85.75
0
LINE
8
0
10
162.75
20
-85.75
11
145.25
21
-85.75
0
LINE
8
0
10
145.25
20
-85.75
11
145.25
21
-102.25
0
LINE
8
0
10
145.25
20
-85.25
11
162.75
21
-85.25
0
LINE
8
0
10
162.75
20
-85.25
11
162.75
21
-68.75
0
LINE
8
0
10
162.75
20
-68.75
11
145.25
21
-68.75
0
LINE
8
0
10
145.25
20
-68.75
11
145.25
21
-85.25
0
LINE
8
0
10
145.25
20
-68.25
11
162.75
21
-68.25
0
LINE
8
0
10
162.75
20
-68.25
11
162.75
21
-51.75
0
LINE
8
0
10
162.75
20
-51.75
11
145.25
21
-51.75
0
LINE
8
0
10
145.25
20
-51.75
11
145.25
21
-68.25
0
LINE
8
0
10
163.25
20
-105.25
11
180.75
21
-105.25
0
LINE
8
0
10
180.75
20
-105.25
11
180.75
21
-88.75
0
LINE
8
0
10
180.75
20
-88.75
11
163.25
21
-88.75
0
LINE
8
0
10
163.25
20
-88.75
11
163.25
21
-105.25
0
LINE
8
0
10
163.25
20
-88.25
11
180.75
21
-88.25
0
LINE
8
0
10
180.75
20
-88.25
11
180.75
21
-71.75
0
LINE
8
0
10
180.75
20
-71.75
11
163.25
21
-71.75
0
LINE
8
0
10
163.25
20
-71.75
11
163.25
21
-88.25
0
LINE
8
0
10
163.25
20
-71.25
11
180.75
21
-71.25
0
LINE
8
0
10
180.75
20
-71.25
11
180.75
21
-54.75
0
LINE
8
0
10
180.75
20
-54.75
11
163.25
21
-54.75
0
LINE
8
0
10
163.25
20
-54.75
11
163.25
21
-71.25
0
LINE
8
0
10
181.25
20
-107.25
11
198.75
21
-107.25
0
LINE
8
0
10
198.75
20
-107.25
11
198.75
21
-90.75
0
LINE
8
0
10
198.75
20
-90.75
11
181.25
21
-90.75
0
LINE
8
0
10
181.25
20
-90.75
11
181.25
21
-107.25
0
LINE
8
0
10
181.25
20
-90.25
11
198.75
21
-90.25
0
LINE
8
0
10
198.75
20
-90.25
11
198.75
21
-73.75
0
LINE
8
0
10
198.75
20
-73.75
11
181.25
21
-73.75
0
LINE
8
0
10
181.25
20
-73.75
11
181.25
21
-90.25
0
LINE
8
0
10
181.25
20
-73.25
11
198.75
21
-73.25
0
LINE
8
0
10
198.75
20
-73.25
11
198.75
21
-56.75
0
LINE
8
0
10
198.75
20
-56.75
11
181.25
21
-56.75
0
LINE
8
0
10
181.25
20
-56.75
11
181.25
21
-73.25
0
LINE
8
0
10
152.9503347
20
-129.4052424
11
170.1844704
21
-132.4440855
0
LINE
8
0
10
170.1844704
20
-132.4440855
11
173.0496653
21
-116.1947576
0
LINE
8
0
10
173.0496653
20
-116.1947576
11
155.8155296
21
-113.1559145
0
LINE
8
0
10
155.8155296
20
-113.1559145
11
152.9503347
21
-129.4052424
0
LINE
8
0
10
173.2489768
20
-130.3993894
11
189.1093631
21
-137.7952089
0
LINE
8
0
10
189.1093631
20
-137.7952089
11
196.0825644
21
-122.8411304
0
LINE
8
0
10
196.0825644
20
-122.8411304
11
180.2221781
21
-115.4453109
0
LINE
8
0
10
180.2221781
20
-115.4453109
11
173.2489768
21
-130.3993894
0
LINE
8
0
10
191.31308
20
-138.1454256
11
204.7188578
21
-149.3942087
0
LINE
8
0
10
204.7188578
20
-149.3942087
11
215.3248534
21
-136.7544754
0
LINE
8
0
10
215.3248534
20
-136.7544754
11
201.9190756
21
-125.5056923
0
LINE
8
0
10
201.9190756
20
-125.5056923
11
191.31308
21
-138.1454256
0
ENDSEC
0
EOF