0
SECTION
2
HEADER
9
$INSUNITS
70
4
0
ENDSEC
0
SECTION
2
TABLES
0
TABLE
2
LTYPE
0
LTYPE
72
65
70
64
2
CONTINUOUS
3
______
73
0
40
0
0
ENDTAB
0
TABLE
2
LAYER
0
ENDTAB
0
ENDSEC
0
SECTION
2
ENTITIES
0
LINE
8
0
10
364
20
-55.7767391
11
364
21
-109.9782621
0
LINE
8
0
10
361.9783802
20
-111.9781452
11
304.2834296
21
-111.3544303
0
LINE
8
0
10
302.2624673
20
-113.4055938
11
302.6924872
21
-130.1714182
0
LINE
8
0
10
301.4530269
20
-132.07272
11
248.5542284
21
-153.8004976
0
LINE
8
0
10
246.2622573
20
-153.2360515
11
232.2483805
21
-136.5349634
0
LINE
8
0
10
231.7805247
20
-135.2345153
11
232.0387345
21
-100.5130867
0
LINE
8
0
10
232.0387854
20
-100.4940195
11
232.0042032
21
-84.0041944
0
LINE
8
0
10
234.0041988
20
-82
11
248
21
-82
0
LINE
8
0
10
250
20
-80
11
250
21
-55.3037962
0
LINE
8
0
10
251.6821408
20
-53.3292164
11
290.8420866
21
-47.0254202
0
LINE
8
0
10
291.1599458
20
-47
11
304.8817703
21
-47
0
LINE
8
0
10
305.1174057
20
-47.0139295
11
362.2356354
21
-53.7906686
0
ARC
8
0
10
362
20
-109.9782621
40
2
50
269.3806263
51
0
0
ARC
8
0
10
304.2618098
20
-113.3543134
40
2
50
89.3806263
51
181.4692363
0
ARC
8
0
10
300.6931447
20
-130.2226986
40
2
50
292.3300339
51
1.4692363
0
ARC
8
0
10
247.7943462
20
-151.9504762
40
2
50
220.0000012
51
292.3300339
0
ARC
8
0
10
233.7804694
20
-135.2493881
40
2
50
179.5739217
51
220.0000012
0
ARC
8
0
10
230.0387898
20
-100.4982139
40
2
50
359.5739217
51
0.1201608
0
ARC
8
0
10
234.0041988
20
-84
40
2
50
90
51
180.1201608
0
ARC
8
0
10
248
20
-80
40
2
50
270
51
0
0
ARC
8
0
10
252
20
-55.3037962
40
2
50
99.144772
51
180
0
ARC
8
0
10
291.1599458
20
-49
40
2
50
90
51
99.144772
0
ARC
8
0
10
304.8817703
20
-49
40
2
50
83.2338272
51
90
0
ARC
8
0
10
362
20
-55.7767391
40
2
50
0
51
83.2338272
0
LINE
8
0
10
343.25
20
-108.25
11
360.75
21
-108.25
0
LINE
8
0
10
360.75
20
-108.25
11
360.75
21
-91.75
0
LINE
8
0
10
360.75
20
-91.75
11
343.25
21
-91.75
0
LINE
8
0
10
343.25
20
-91.75
11
343.25
21
-108.25
0
LINE
8
0
10
343.25
20
-91.25
11
360.75
21
-91.25
0
LINE
8
0
10
360.75
20
-91.25
11
360.75
21
-74.75
0
LINE
8
0
10
360.75
20
-74.75
11
343.25
21
-74.75
0
LINE
8
0
10
343.25
20
-74.75
11
343.25
21
-91.25
0
LINE
8
0
10
343.25
20
-74.25
11
360.75
21
-74.25
0
LINE
8
0
10
360.75
20
-74.25
11
360.75
21
-57.75
0
LINE
8
0
10
360.75
20
-57.75
11
343.25
21
-57.75
0
LINE
8
0
10
343.25
20
-57.75
11
343.25
21
-74.25
0
LINE
8
0
10
325.25
20
-108.25
11
342.75
21
-108.25
0
LINE
8
0
10
342.75
20
-108.25
11
342.75
21
-91.75
0
LINE
8
0
10
342.75
20
-91.75
11
325.25
21
-91.75
0
LINE
8
0
10
325.25
20
-91.75
11
325.25
21
-108.25
0
LINE
8
0
10
325.25
20
-91.25
11
342.75
21
-91.25
0
LINE
8
0
10
342.75
20
-91.25
11
342.75
21
-74.75
0
LINE
8
0
10
342.75
20
-74.75
11
325.25
21
-74.75
0
LINE
8
0
10
325.25
20
-74.75
11
325.25
21
-91.25
0
LINE
8
0
10
325.25
20
-74.25
11
342.75
21
-74.25
0
LINE
8
0
10
342.75
20
-74.25
11
342.75
21
-57.75
0
LINE
8
0
10
342.75
20
-57.75
11
325.25
21
-57.75
0
LINE
8
0
10
325.25
20
-57.75
11
325.25
21
-74.25
0
LINE
8
0
10
307.25
20
-105.25
11
324.75
21
-105.25
0
LINE
8
0
10
324.75
20
-105.25
11
324.75
21
-88.75
0
LINE
8
0
10
324.75
20
-88.75
11
307.25
21
-88.75
0
LINE
8
0
10
307.25
20
-88.75
11
307.25
21
-105.25
0
LINE
8
0
10
307.25
20
-88.25
11
324.75
21
-88.25
0
LINE
8
0
10
324.75
20
-88.25
11
324.75
21
-71.75
0
LINE
8
0
10
324.75
20
-71.75
11
307.25
21
-71.75
0
LINE
8
0
10
307.25
20
-71.75
11
307.25
21
-88.25
0
LINE
8
0
10
307.25
20
-71.25
11
324.75
21
-71.25
0
LINE
8
0
10
324.75
20
-71.25
11
324.75
21
-54.75
0
LINE
8
0
10
324.75
20
-54.75
11
307.25
21
-54.75
0
LINE
8
0
10
307.25
20
-54.75
11
307.25
21
-71.25
0
LINE
8
0
10
289.25
20
-102.25
11
306.75
21
-102.25
0
LINE
8
0
10
306.75
20
-102.25
11
306.75
21
-85.75
0
LINE
8
0
10
306.75
20
-85.75
11
289.25
21
-85.75
0
LINE
8
0
10
289.25
20
-85.75
11
289.25
21
-102.25
0
LINE
8
0
10
289.25
20
-85.25
11
306.75
21
-85.25
0
LINE
8
0
10
306.75
20
-85.25
11
306.75
21
-68.75
0
LINE
8
0
10
306.75
20
-68.75
11
289.25
21
-68.75
0
LINE
8
0
10
289.25
20
-68.75
11
289.25
21
-85.25
0
LINE
8
0
10
289.25
20
-68.25
11
306.75
21
-68.25
0
LINE
8
0
10
306.75
20
-68.25
11
306.75
21
-51.75
0
LINE
8
0
10
306.75
20
-51.75
11
289.25
21
-51.75
0
LINE
8
0
10
289.25
20
-51.75
11
289.25
21
-68.25
0
LINE
8
0
10
271.25
20
-105.25
11
288.75
21
-105.25
0
LINE
8
0
10
288.75
20
-105.25
11
288.75
21
-88.75
0
LINE
8
0
10
288.75
20
-88.75
11
271.25
21
-88.75
0
LINE
8
0
10
271.25
20
-88.75
11
271.25
21
-105.25
0
LINE
8
0
10
271.25
20
-88.25
11
288.75
21
-88.25
0
LINE
8
0
10
288.75
20
-88.25
11
288.75
21
-71.75
0
LINE
8
0
10
288.75
20
-71.75
11
271.25
21
-71.75
0
LINE
8
0
10
271.25
20
-71.75
11
271.25
21
-88.25
0
LINE
8
0
10
271.25
20
-71.25
11
288.75
21
-71.25
0
LINE
8
0
10
288.75
20
-71.25
11
288.75
21
-54.75
0
LINE
8
0
10
288.75
20
-54.75
11
271.25
21
-54.75
0
LINE
8
0
10
271.25
20
-54.75
11
271.25
21
-71.25
0
LINE
8
0
10
253.25
20
-107.25
11
270.75
21
-107.25
0
LINE
8
0
10
270.75
20
-107.25
11
270.75
21
-90.75
0
LINE
8
0
10
270.75
20
-90.75
11
253.25
21
-90.75
0
LINE
8
0
10
253.25
20
-90.75
11
253.25
21
-107.25
0
LINE
8
0
10
253.25
20
-90.25
11
270.75
21
-90.25
0
LINE
8
0
10
270.75
20
-90.25
11
270.75
21
-73.75
0
LINE
8
0
10
270.75
20
-73.75
11
253.25
21
-73.75
0
LINE
8
0
10
253.25
20
-73.75
11
253.25
21
-90.25
0
LINE
8
0
10
253.25
20
-73.25
11
270.75
21
-73.25
0
LINE
8
0
10
270.75
20
-73.25
11
270.75
21
-56.75
0
LINE
8
0
10
270.75
20
-56.75
11
253.25
21
-56.75
0
LINE
8
0
10
253.25
20
-56.75
11
253.25
21
-73.25
0
LINE
8
0
10
281.8155296
20
-132.4440855
11
299.0496653
21
-129.4052424
0
LINE
8
0
10
299.0496653
20
-129.4052424
11
296.1844704
21
-113.1559145
0
LINE
8
0
10
296.1844704
20
-113.1559145
11
278.9503347
21
-116.1947576
0
LINE
8
0
10
278.9503347
20
-116.1947576
11
281.8155296
21
-132.4440855
0
LINE
8
0
10
262.8906369
20
-137.7952089
11
278.7510232
21
-130.3993894
0
LINE
8
0
10
278.7510232
20
-130.3993894
11
271.7778219
21
-115.4453109
0
LINE
8
0
10
271.7778219
20
-115.4453109
11
255.9174356
21
-122.8411304
0
LINE
8
0
10
255.9174356
20
-122.8411304
11
262.8906369
21
-137.7952089
0
LINE
8
0
10
247.2811422
20
-149.3942087
11
260.68692
21
-138.1454256
0
LINE
8
0
10
260.68692
20
-138.1454256
11
250.0809244
21
-125.5056923
0
LINE
8
0
10
250.0809244
20
-125.5056923
11
236.6751466
21
-136.7544754
0
LINE
8
0
10
236.6751466
20
-136.7544754
11
247.2811422
21
-149.3942087
0
LINE
8
0
10
88
20
-55.7767391
11
88
21
-109.9782621
0
LINE
8
0
10
90.0216198
20
-111.9781452
11
147.7165704
21
-111.3544303
0
LINE
8
0
10
149.7375327
20
-113.4055938
11
149.3075128
21
-130.1714182
0
LINE
8
0
10
150.5469731
20
-132.07272
11
203.4457716
21
-153.8004976
0
LINE
8
0
10
205.7377427
20
-153.2360515
11
219.7516195
21
-136.5349634
0
LINE
8
0
10
220.2194753
20
-135.2345153
11
219.9612655
21
-100.5130867
0
LINE
8
0
10
219.9612146
20
-100.4940195
11
219.9957968
21
-84.0041944
0
LINE
8
0
10
217.9958012
20
-82
11
204
21
-82
0
LINE
8
0
10
202
20
-80
11
202
21
-55.3037962
0
LINE
8
0
10
200.3178592
20
-53.3292164
11
161.1579134
21
-47.0254202
0
LINE
8
0
10
160.8400542
20
-47
11
147.1182297
21
-47
0
LINE
8
0
10
146.8825943
20
-47.0139295
11
89.7643646
21
-53.7906686
0
ARC
8
0
10
90
20
-109.9782621
40
2
50
180
51
270.6193737
0
ARC
8
0
10
147.7381902
20
-113.3543134
40
2
50
358.5307637
51
90.6193737
0
ARC
8
0
10
151.3068553
20
-130.2226986
40
2
50
178.5307637
51
247.6699661
0
ARC
8
0
10
204.2056538
20
-151.9504762
40
2
50
247.6699661
51
319.9999988
0
ARC
8
0
10
218.2195306
20
-135.2493881
40
2
50
319.9999988
51
0.4260783
0
ARC
8
0
10
221.9612102
20
-100.4982139
40
2
50
179.8798392
51
180.4260783
0
ARC
8
0
10
217.9958012
20
-84
40
2
50
359.8798392
51
90
0
ARC
8
0
10
204
20
-80
40
2
50
180
51
270
0
ARC
8
0
10
200
20
-55.3037962
40
2
50
0
51
80.855228
0
ARC
8
0
10
160.8400542
20
-49
40
2
50
80.855228
51
90
0
ARC
8
0
10
147.1182297
20
-49
40
2
50
90
51
96.7661728
0
ARC
8
0
10
90
20
-55.7767391
40
2
50
96.7661728
51
180
0
LINE
8
0
10
91.25
20
-108.25
11
108.75
21
-108.25
0
LINE
8
0
10
108.75
20
-108.25
11
108.75
21
-91.75
0
LINE
8
0
10
108.75
20
-91.75
11
91.25
21
-91.75
0
LINE
8
0
10
91.25
20
-91.75
11
91.25
21
-108.25
0
LINE
8
0
10
91.25
20
-91.25
11
108.75
21
-91.25
0
LINE
8
0
10
108.75
20
-91.25
11
108.75
21
-74.75
0
LINE
8
0
10
108.75
20
-74.75
11
91.25
21
-74.75
0
LINE
8
0
10
91.25
20
-74.75
11
91.25
21
-91.25
0
LINE
8
0
10
91.25
20
-74.25
11
108.75
21
-74.25
0
LINE
8
0
10
108.75
20
-74.25
11
108.75
21
-57.75
0
LINE
8
0
10
108.75
20
-57.75
11
91.25
21
-57.75
0
LINE
8
0
10
91.25
20
-57.75
11
91.25
21
-74.25
0
LINE
8
0
10
109.25
20
-108.25
11
126.75
21
-108.25
0
LINE
8
0
10
126.75
20
-108.25
11
126.75
21
-91.75
0
LINE
8
0
10
126.75
20
-91.75
11
109.25
21
-91.75
0
LINE
8
0
10
109.25
20
-91.75
11
109.25
21
-108.25
0
LINE
8
0
10
109.25
20
-91.25
11
126.75
21
-91.25
0
LINE
8
0
10
126.75
20
-91.25
11
126.75
21
-74.75
0
LINE
8
0
10
126.75
20
-74.75
11
109.25
21
-74.75
0
LINE
8
0
10
109.25
20
-74.75
11
109.25
21
-91.25
0
LINE
8
0
10
109.25
20
-74.25
11
126.75
21
-74.25
0
LINE
8
0
10
126.75
20
-74.25
11
126.75
21
-57.75
0
LINE
8
0
10
126.75
20
-57.75
11
109.25
21
-57.75
0
LINE
8
0
10
109.25
20
-57.75
11
109.25
21
-74.25
0
LINE
8
0
10
127.25
20
-105.25
11
144.75
21
-105.25
0
LINE
8
0
10
144.75
20
-105.25
11
144.75
21
-88.75
0
LINE
8
0
10
144.75
20
-88.75
11
127.25
21
-88.75
0
LINE
8
0
10
127.25
20
-88.75
11
127.25
21
-105.25
0
LINE
8
0
10
127.25
20
-88.25
11
144.75
21
-88.25
0
LINE
8
0
10
144.75
20
-88.25
11
144.75
21
-71.75
0
LINE
8
0
10
144.75
20
-71.75
11
127.25
21
-71.75
0
LINE
8
0
10
127.25
20
-71.75
11
127.25
21
-88.25
0
LINE
8
0
10
127.25
20
-71.25
11
144.75
21
-71.25
0
LINE
8
0
10
144.75
20
-71.25
11
144.75
21
-54.75
0
LINE
8
0
10
144.75
20
-54.75
11
127.25
21
-54.75
0
LINE
8
0
10
127.25
20
-54.75
11
127.25
21
-71.25
0
LINE
8
0
10
145.25
20
-102.25
11
162.75
21
-102.25
0
LINE
8
0
10
162.75
20
-102.25
11
162.75
21
-85.75
0
LINE
8
0
10
162.75
20
-85.75
11
145.25
21
-85.75
0
LINE
8
0
10
145.25
20
-85.75
11
145.25
21
-102.25
0
LINE
8
0
10
145.25
20
-85.25
11
162.75
21
-85.25
0
LINE
8
0
10
162.75
20
-85.25
11
162.75
21
-68.75
0
LINE
8
0
10
162.75
20
-68.75
11
145.25
21
-68.75
0
LINE
8
0
10
145.25
20
-68.75
11
145.25
21
-85.25
0
LINE
8
0
10
145.25
20
-68.25
11
162.75
21
-68.25
0
LINE
8
0
10
162.75
20
-68.25
11
162.75
21
-51.75
0
LINE
8
0
10
162.75
20
-51.75
11
145.25
21
-51.75
0
LINE
8
0
10
145.25
20
-51.75
11
145.25
21
-68.25
0
LINE
8
0
10
163.25
20
-105.25
11
180.75
21
-105.25
0
LINE
8
0
10
180.75
20
-105.25
11
180.75
21
-88.75
0
LINE
8
0
10
180.75
20
-88.75
11
163.25
21
-88.75
0
LINE
8
0
10
163.25
20
-88.75
11
163.25
21
-105.25
0
LINE
8
0
10
163.25
20
-88.25
11
180.75
21
-88.25
0
LINE
8
0
10
180.75
20
-88.25
11
180.75
21
-71.75
0
LINE
8
0
10
180.75
20
-71.75
11
163.25
21
-71.75
0
LINE
8
0
10
163.25
20
-71.75
11
163.25
21
-88.25
0
LINE
8
0
10
163.25
20
-71.25
11
180.75
21
-71.25
0
LINE
8
0
10
180.75
20
-71.25
11
180.75
21
-54.75
0
LINE
8
0
10
180.75
20
-54.75
11
163.25
21
-54.75
0
LINE
8
0
10
163.25
20
-54.75
11
163.25
21
-71.25
0
LINE
8
0
10
181.25
20
-107.25
11
198.75
21
-107.25
0
LINE
8
0
10
198.75
20
-107.25
11
198.75
21
-90.75
0
LINE
8
0
10
198.75
20
-90.75
11
181.25
21
-90.75
0
LINE
8
0
10
181.25
20
-90.75
11
181.25
21
-107.25
0
LINE
8
0
10
181.25
20
-90.25
11
198.75
21
-90.25
0
LINE
8
0
10
198.75
20
-90.25
11
198.75
21
-73.75
0
LINE
8
0
10
198.75
20
-73.75
11
181.25
21
-73.75
0
LINE
8
0
10
181.25
20
-73.75
11
181.25
21
-90.25
0
LINE
8
0
10
181.25
20
-73.25
11
198.75
21
-73.25
0
LINE
8
0
10
198.75
20
-73.25
11
198.75
21
-56.75
0
LINE
8
0
10
198.75
20
-56.75
11
181.25
21
-56.75
0
LINE
8
0
10
181.25
20
-56.75
11
181.25
21
-73.25
0
LINE
8
0
10
152.9503347
20
-129.4052424
11
170.1844704
21
-132.4440855
0
LINE
8
0
10
170.1844704
20
-132.4440855
11
173.0496653
21
-116.1947576
0
LINE
8
0
10
173.0496653
20
-116.1947576
11
155.8155296
21
-113.1559145
0
LINE
8
0
10
155.8155296
20
-113.1559145
11
152.9503347
21
-129.4052424
0
LINE
8
0
10
173.2489768
20
-130.3993894
11
189.1093631
21
-137.7952089
0
LINE
8
0
10
189.1093631
20
-137.7952089
11
196.0825644
21
-122.8411304
0
LINE
8
0
10
196.0825644
20
-122.8411304
11
180.2221781
21
-115.4453109
0
LINE
8
0
10
180.2221781
20
-115.4453109
11
173.2489768
21
-130.3993894
0
LINE
8
0
10
191.31308
20
-138.1454256
11
204.7188578
21
-149.3942087
0
LINE
8
0
10
204.7188578
20
-149.3942087
11
215.3248534
21
-136.7544754
0
LINE
8
0
10
215.3248534
20
-136.7544754
11
201.9190756
21
-125.5056923
0
LINE
8
0
10
201.9190756
20
-125.5056923
11
191.31308
21
-138.1454256
0
ENDSEC
0
EOF