0
SECTION
2
HEADER
9
$INSUNITS
70
4
0
ENDSEC
0
SECTION
2
TABLES
0
TABLE
2
LTYPE
0
LTYPE
72
65
70
64
2
CONTINUOUS
3
______
73
0
40
0
0
ENDTAB
0
TABLE
2
LAYER
0
ENDTAB
0
ENDSEC
0
SECTION
2
ENTITIES
0
LINE
8
0
10
91.25
20
-108.25
11
108.75
21
-108.25
0
LINE
8
0
10
108.75
20
-108.25
11
108.75
21
-91.75
0
LINE
8
0
10
108.75
20
-91.75
11
91.25
21
-91.75
0
LINE
8
0
10
91.25
20
-91.75
11
91.25
21
-108.25
0
LINE
8
0
10
91.25
20
-91.25
11
108.75
21
-91.25
0
LINE
8
0
10
108.75
20
-91.25
11
108.75
21
-74.75
0
LINE
8
0
10
108.75
20
-74.75
11
91.25
21
-74.75
0
LINE
8
0
10
91.25
20
-74.75
11
91.25
21
-91.25
0
LINE
8
0
10
91.25
20
-74.25
11
108.75
21
-74.25
0
LINE
8
0
10
108.75
20
-74.25
11
108.75
21
-57.75
0
LINE
8
0
10
108.75
20
-57.75
11
91.25
21
-57.75
0
LINE
8
0
10
91.25
20
-57.75
11
91.25
21
-74.25
0
LINE
8
0
10
109.25
20
-108.25
11
126.75
21
-108.25
0
LINE
8
0
10
126.75
20
-108.25
11
126.75
21
-91.75
0
LINE
8
0
10
126.75
20
-91.75
11
109.25
21
-91.75
0
LINE
8
0
10
109.25
20
-91.75
11
109.25
21
-108.25
0
LINE
8
0
10
109.25
20
-91.25
11
126.75
21
-91.25
0
LINE
8
0
10
126.75
20
-91.25
11
126.75
21
-74.75
0
LINE
8
0
10
126.75
20
-74.75
11
109.25
21
-74.75
0
LINE
8
0
10
109.25
20
-74.75
11
109.25
21
-91.25
0
LINE
8
0
10
109.25
20
-74.25
11
126.75
21
-74.25
0
LINE
8
0
10
126.75
20
-74.25
11
126.75
21
-57.75
0
LINE
8
0
10
126.75
20
-57.75
11
109.25
21
-57.75
0
LINE
8
0
10
109.25
20
-57.75
11
109.25
21
-74.25
0
LINE
8
0
10
127.25
20
-105.25
11
144.75
21
-105.25
0
LINE
8
0
10
144.75
20
-105.25
11
144.75
21
-88.75
0
LINE
8
0
10
144.75
20
-88.75
11
127.25
21
-88.75
0
LINE
8
0
10
127.25
20
-88.75
11
127.25
21
-105.25
0
LINE
8
0
10
127.25
20
-88.25
11
144.75
21
-88.25
0
LINE
8
0
10
144.75
20
-88.25
11
144.75
21
-71.75
0
LINE
8
0
10
144.75
20
-71.75
11
127.25
21
-71.75
0
LINE
8
0
10
127.25
20
-71.75
11
127.25
21
-88.25
0
LINE
8
0
10
127.25
20
-71.25
11
144.75
21
-71.25
0
LINE
8
0
10
144.75
20
-71.25
11
144.75
21
-54.75
0
LINE
8
0
10
144.75
20
-54.75
11
127.25
21
-54.75
0
LINE
8
0
10
127.25
20
-54.75
11
127.25
21
-71.25
0
LINE
8
0
10
145.25
20
-102.25
11
162.75
21
-102.25
0
LINE
8
0
10
162.75
20
-102.25
11
162.75
21
-85.75
0
LINE
8
0
10
162.75
20
-85.75
11
145.25
21
-85.75
0
LINE
8
0
10
145.25
20
-85.75
11
145.25
21
-102.25
0
LINE
8
0
10
145.25
20
-85.25
11
162.75
21
-85.25
0
LINE
8
0
10
162.75
20
-85.25
11
162.75
21
-68.75
0
LINE
8
0
10
162.75
20
-68.75
11
145.25
21
-68.75
0
LINE
8
0
10
145.25
20
-68.75
11
145.25
21
-85.25
0
LINE
8
0
10
145.25
20
-68.25
11
162.75
21
-68.25
0
LINE
8
0
10
162.75
20
-68.25
11
162.75
21
-51.75
0
LINE
8
0
10
162.75
20
-51.75
11
145.25
21
-51.75
0
LINE
8
0
10
145.25
20
-51.75
11
145.25
21
-68.25
0
LINE
8
0
10
163.25
20
-105.25
11
180.75
21
-105.25
0
LINE
8
0
10
180.75
20
-105.25
11
180.75
21
-88.75
0
LINE
8
0
10
180.75
20
-88.75
11
163.25
21
-88.75
0
LINE
8
0
10
163.25
20
-88.75
11
163.25
21
-105.25
0
LINE
8
0
10
163.25
20
-88.25
11
180.75
21
-88.25
0
LINE
8
0
10
180.75
20
-88.25
11
180.75
21
-71.75
0
LINE
8
0
10
180.75
20
-71.75
11
163.25
21
-71.75
0
LINE
8
0
10
163.25
20
-71.75
11
163.25
21
-88.25
0
LINE
8
0
10
163.25
20
-71.25
11
180.75
21
-71.25
0
LINE
8
0
10
180.75
20
-71.25
11
180.75
21
-54.75
0
LINE
8
0
10
180.75
20
-54.75
11
163.25
21
-54.75
0
LINE
8
0
10
163.25
20
-54.75
11
163.25
21
-71.25
0
LINE
8
0
10
181.25
20
-107.25
11
198.75
21
-107.25
0
LINE
8
0
10
198.75
20
-107.25
11
198.75
21
-90.75
0
LINE
8
0
10
198.75
20
-90.75
11
181.25
21
-90.75
0
LINE
8
0
10
181.25
20
-90.75
11
181.25
21
-107.25
0
LINE
8
0
10
181.25
20
-90.25
11
198.75
21
-90.25
0
LINE
8
0
10
198.75
20
-90.25
11
198.75
21
-73.75
0
LINE
8
0
10
198.75
20
-73.75
11
181.25
21
-73.75
0
LINE
8
0
10
181.25
20
-73.75
11
181.25
21
-90.25
0
LINE
8
0
10
181.25
20
-73.25
11
198.75
21
-73.25
0
LINE
8
0
10
198.75
20
-73.25
11
198.75
21
-56.75
0
LINE
8
0
10
198.75
20
-56.75
11
181.25
21
-56.75
0
LINE
8
0
10
181.25
20
-56.75
11
181.25
21
-73.25
0
LINE
8
0
10
152.9503347
20
-129.4052424
11
170.1844704
21
-132.4440855
0
LINE
8
0
10
170.1844704
20
-132.4440855
11
173.0496653
21
-116.1947576
0
LINE
8
0
10
173.0496653
20
-116.1947576
11
155.8155296
21
-113.1559145
0
LINE
8
0
10
155.8155296
20
-113.1559145
11
152.9503347
21
-129.4052424
0
LINE
8
0
10
173.2489768
20
-130.3993894
11
189.1093631
21
-137.7952089
0
LINE
8
0
10
189.1093631
20
-137.7952089
11
196.0825644
21
-122.8411304
0
LINE
8
0
10
196.0825644
20
-122.8411304
11
180.2221781
21
-115.4453109
0
LINE
8
0
10
180.2221781
20
-115.4453109
11
173.2489768
21
-130.3993894
0
LINE
8
0
10
191.31308
20
-138.1454256
11
204.7188578
21
-149.3942087
0
LINE
8
0
10
204.7188578
20
-149.3942087
11
215.3248534
21
-136.7544754
0
LINE
8
0
10
215.3248534
20
-136.7544754
11
201.9190756
21
-125.5056923
0
LINE
8
0
10
201.9190756
20
-125.5056923
11
191.31308
21
-138.1454256
0
LINE
8
0
10
343.25
20
-108.25
11
360.75
21
-108.25
0
LINE
8
0
10
360.75
20
-108.25
11
360.75
21
-91.75
0
LINE
8
0
10
360.75
20
-91.75
11
343.25
21
-91.75
0
LINE
8
0
10
343.25
20
-91.75
11
343.25
21
-108.25
0
LINE
8
0
10
343.25
20
-91.25
11
360.75
21
-91.25
0
LINE
8
0
10
360.75
20
-91.25
11
360.75
21
-74.75
0
LINE
8
0
10
360.75
20
-74.75
11
343.25
21
-74.75
0
LINE
8
0
10
343.25
20
-74.75
11
343.25
21
-91.25
0
LINE
8
0
10
343.25
20
-74.25
11
360.75
21
-74.25
0
LINE
8
0
10
360.75
20
-74.25
11
360.75
21
-57.75
0
LINE
8
0
10
360.75
20
-57.75
11
343.25
21
-57.75
0
LINE
8
0
10
343.25
20
-57.75
11
343.25
21
-74.25
0
LINE
8
0
10
325.25
20
-108.25
11
342.75
21
-108.25
0
LINE
8
0
10
342.75
20
-108.25
11
342.75
21
-91.75
0
LINE
8
0
10
342.75
20
-91.75
11
325.25
21
-91.75
0
LINE
8
0
10
325.25
20
-91.75
11
325.25
21
-108.25
0
LINE
8
0
10
325.25
20
-91.25
11
342.75
21
-91.25
0
LINE
8
0
10
342.75
20
-91.25
11
342.75
21
-74.75
0
LINE
8
0
10
342.75
20
-74.75
11
325.25
21
-74.75
0
LINE
8
0
10
325.25
20
-74.75
11
325.25
21
-91.25
0
LINE
8
0
10
325.25
20
-74.25
11
342.75
21
-74.25
0
LINE
8
0
10
342.75
20
-74.25
11
342.75
21
-57.75
0
LINE
8
0
10
342.75
20
-57.75
11
325.25
21
-57.75
0
LINE
8
0
10
325.25
20
-57.75
11
325.25
21
-74.25
0
LINE
8
0
10
307.25
20
-105.25
11
324.75
21
-105.25
0
LINE
8
0
10
324.75
20
-105.25
11
324.75
21
-88.75
0
LINE
8
0
10
324.75
20
-88.75
11
307.25
21
-88.75
0
LINE
8
0
10
307.25
20
-88.75
11
307.25
21
-105.25
0
LINE
8
0
10
307.25
20
-88.25
11
324.75
21
-88.25
0
LINE
8
0
10
324.75
20
-88.25
11
324.75
21
-71.75
0
LINE
8
0
10
324.75
20
-71.75
11
307.25
21
-71.75
0
LINE
8
0
10
307.25
20
-71.75
11
307.25
21
-88.25
0
LINE
8
0
10
307.25
20
-71.25
11
324.75
21
-71.25
0
LINE
8
0
10
324.75
20
-71.25
11
324.75
21
-54.75
0
LINE
8
0
10
324.75
20
-54.75
11
307.25
21
-54.75
0
LINE
8
0
10
307.25
20
-54.75
11
307.25
21
-71.25
0
LINE
8
0
10
289.25
20
-102.25
11
306.75
21
-102.25
0
LINE
8
0
10
306.75
20
-102.25
11
306.75
21
-85.75
0
LINE
8
0
10
306.75
20
-85.75
11
289.25
21
-85.75
0
LINE
8
0
10
289.25
20
-85.75
11
289.25
21
-102.25
0
LINE
8
0
10
289.25
20
-85.25
11
306.75
21
-85.25
0
LINE
8
0
10
306.75
20
-85.25
11
306.75
21
-68.75
0
LINE
8
0
10
306.75
20
-68.75
11
289.25
21
-68.75
0
LINE
8
0
10
289.25
20
-68.75
11
289.25
21
-85.25
0
LINE
8
0
10
289.25
20
-68.25
11
306.75
21
-68.25
0
LINE
8
0
10
306.75
20
-68.25
11
306.75
21
-51.75
0
LINE
8
0
10
306.75
20
-51.75
11
289.25
21
-51.75
0
LINE
8
0
10
289.25
20
-51.75
11
289.25
21
-68.25
0
LINE
8
0
10
271.25
20
-105.25
11
288.75
21
-105.25
0
LINE
8
0
10
288.75
20
-105.25
11
288.75
21
-88.75
0
LINE
8
0
10
288.75
20
-88.75
11
271.25
21
-88.75
0
LINE
8
0
10
271.25
20
-88.75
11
271.25
21
-105.25
0
LINE
8
0
10
271.25
20
-88.25
11
288.75
21
-88.25
0
LINE
8
0
10
288.75
20
-88.25
11
288.75
21
-71.75
0
LINE
8
0
10
288.75
20
-71.75
11
271.25
21
-71.75
0
LINE
8
0
10
271.25
20
-71.75
11
271.25
21
-88.25
0
LINE
8
0
10
271.25
20
-71.25
11
288.75
21
-71.25
0
LINE
8
0
10
288.75
20
-71.25
11
288.75
21
-54.75
0
LINE
8
0
10
288.75
20
-54.75
11
271.25
21
-54.75
0
LINE
8
0
10
271.25
20
-54.75
11
271.25
21
-71.25
0
LINE
8
0
10
253.25
20
-107.25
11
270.75
21
-107.25
0
LINE
8
0
10
270.75
20
-107.25
11
270.75
21
-90.75
0
LINE
8
0
10
270.75
20
-90.75
11
253.25
21
-90.75
0
LINE
8
0
10
253.25
20
-90.75
11
253.25
21
-107.25
0
LINE
8
0
10
253.25
20
-90.25
11
270.75
21
-90.25
0
LINE
8
0
10
270.75
20
-90.25
11
270.75
21
-73.75
0
LINE
8
0
10
270.75
20
-73.75
11
253.25
21
-73.75
0
LINE
8
0
10
253.25
20
-73.75
11
253.25
21
-90.25
0
LINE
8
0
10
253.25
20
-73.25
11
270.75
21
-73.25
0
LINE
8
0
10
270.75
20
-73.25
11
270.75
21
-56.75
0
LINE
8
0
10
270.75
20
-56.75
11
253.25
21
-56.75
0
LINE
8
0
10
253.25
20
-56.75
11
253.25
21
-73.25
0
LINE
8
0
10
281.8155296
20
-132.4440855
11
299.0496653
21
-129.4052424
0
LINE
8
0
10
299.0496653
20
-129.4052424
11
296.1844704
21
-113.1559145
0
LINE
8
0
10
296.1844704
20
-113.1559145
11
278.9503347
21
-116.1947576
0
LINE
8
0
10
278.9503347
20
-116.1947576
11
281.8155296
21
-132.4440855
0
LINE
8
0
10
262.8906369
20
-137.7952089
11
278.7510232
21
-130.3993894
0
LINE
8
0
10
278.7510232
20
-130.3993894
11
271.7778219
21
-115.4453109
0
LINE
8
0
10
271.7778219
20
-115.4453109
11
255.9174356
21
-122.8411304
0
LINE
8
0
10
255.9174356
20
-122.8411304
11
262.8906369
21
-137.7952089
0
LINE
8
0
10
247.2811422
20
-149.3942087
11
260.68692
21
-138.1454256
0
LINE
8
0
10
260.68692
20
-138.1454256
11
250.0809244
21
-125.5056923
0
LINE
8
0
10
250.0809244
20
-125.5056923
11
236.6751466
21
-136.7544754
0
LINE
8
0
10
236.6751466
20
-136.7544754
11
247.2811422
21
-149.3942087
0
ENDSEC
0
EOF